<svg height="20" viewBox="0 0 26 20" width="26" xmlns="http://www.w3.org/2000/svg"><path d="m39.0966797 22.96875c1.9628906 0 3.5595703 1.5966797 3.5595703 3.5888672v9.6386719c0 1.9921875-1.5966797 3.6474609-3.5595703 3.6474609h-3.6474609c.8349609-.46875 1.5527343-1.40625 2.109375-2.34375h1.5380859c.6738281 0 1.2158203-.6005859 1.2158203-1.3037109v-9.6386719c0-.703125-.5419922-1.2451172-1.2158203-1.2451172h-3.4863281l-1.6259766-2.8125h-7.8808594l-1.6552734 2.8125h-3.5449219c-.6738281 0-1.2158203.5419922-1.2158203 1.2451172v9.6386719c0 .703125.5419922 1.3037109 1.2158203 1.3037109h1.5380859c.5566407.9375 1.2744141 1.875 2.109375 2.34375h-3.6474609c-1.9628906 0-3.5595703-1.6552734-3.5595703-3.6474609v-9.6386719c0-1.9921875 1.5966797-3.5888672 3.5595703-3.5888672h2.2119141l1.6552734-2.8125h10.546875l1.640625 2.8125zm-9.0966797 16.875c-3.8818359 0-7.03125-3.1494141-7.03125-7.03125s3.1494141-7.03125 7.03125-7.03125 7.03125 3.1494141 7.03125 7.03125-3.1494141 7.03125-7.03125 7.03125zm0-11.8066406c-2.6367188 0-4.7753906 2.1386718-4.7753906 4.7753906s2.1386718 4.7753906 4.7753906 4.7753906 4.7753906-2.1386718 4.7753906-4.7753906-2.1386718-4.7753906-4.7753906-4.7753906z" fill="#93dddf" fill-rule="evenodd" transform="translate(-17 -20)"/></svg>