<svg clip-rule="evenodd" fill-rule="evenodd" stroke-linejoin="round" stroke-miterlimit="1.41421" viewBox="0 0 303 33" xmlns="http://www.w3.org/2000/svg"><g fill="#b91100" fill-rule="nonzero" transform="matrix(1.3652 0 0 1.3652 -67.58901 -97.2029)"><g transform="matrix(1.20365 0 0 1.20365 -.401422 3.21065)"><path d="m62.386 73.294c-.19.12-.524.34-1.001.662s-1.109.644-1.896.966c-.786.321-1.722.608-2.807.858s-2.318.375-3.701.375c-1.693 0-3.243-.238-4.649-.715-1.407-.477-2.623-1.144-3.648-2.003-1.025-.858-1.818-1.895-2.378-3.111-.561-1.216-.841-2.563-.841-4.041 0-1.431.286-2.748.859-3.952.572-1.204 1.359-2.241 2.36-3.111s2.175-1.544 3.522-2.021c1.348-.476 2.796-.715 4.346-.715 1.287 0 2.443.125 3.469.376 1.025.25 1.931.56 2.717.929.787.37 1.461.751 2.021 1.145.56.393 1.031.733 1.413 1.019l-1.681 2.646c-.501-.333-1.019-.673-1.556-1.019-.536-.345-1.114-.661-1.734-.947-.62-.287-1.312-.525-2.075-.716-.762-.19-1.621-.286-2.574-.286-1.216 0-2.319.179-3.308.537-.99.357-1.824.846-2.504 1.466-.679.62-1.204 1.347-1.573 2.181-.37.835-.555 1.729-.555 2.683 0 .81.167 1.609.501 2.396.334.786.846 1.484 1.538 2.092.691.608 1.561 1.096 2.61 1.466s2.277.554 3.684.554c1.073 0 2.05-.107 2.933-.322.882-.214 1.662-.464 2.342-.751.679-.286 1.252-.572 1.717-.858.464-.286.816-.512 1.055-.679z"/><path d="m88.421 75.583h-3.719l-2.36-4.327h-11.301l-2.289 4.327h-3.576l10.013-18.525h3.147zm-11.694-14.984-4.041 7.51h8.082z"/><path d="m146.12261 57.058h3.147v18.525h-3.147z"/><path d="m176.493 75.583h-19.158v-18.525h18.8v3.147h-15.653v4.256h10.548v3.147h-10.548v4.828h16.011z" transform="translate(-2.49242)"/><path d="m225.738 75.583h-19.158v-18.525h18.8v3.147h-15.653v4.256h10.547v3.147h-10.547v4.828h16.011z"/></g><path d="m110.967 75.681v-3.792h16.775c1.119 0 2.188.108 3.207.323 1.018.215 1.922.567 2.711 1.054.79.488 1.414 1.141 1.873 1.959s.689 1.844.689 3.078-.187 2.26-.56 3.077c-.373.818-.854 1.471-1.442 1.959s-1.234.854-1.937 1.098-1.385.423-2.045.538l6.5 9.211h-4.735l-6.414-9.125h-10.834v9.125h-3.788v-12.92h3.788v.007h13.374c1.263 0 2.296-.208 3.099-.624.804-.416 1.206-1.17 1.206-2.26 0-.632-.101-1.127-.302-1.485-.2-.359-.495-.632-.882-.818-.387-.187-.861-.301-1.421-.344-.559-.044-1.198-.065-1.915-.065h-13.159v.004z"/><path d="m143.4 75.681v-3.792h16.775c1.119 0 2.188.108 3.207.323 1.018.215 1.922.567 2.712 1.054.789.488 1.413 1.141 1.872 1.959s.689 1.844.689 3.078-.187 2.26-.56 3.077c-.373.818-.854 1.471-1.442 1.959s-1.234.854-1.937 1.098-1.384.423-2.045.538l6.5 9.211h-4.735l-6.413-9.125h-10.835v9.125h-3.788v-12.92h3.788v.007h13.374c1.263 0 2.296-.208 3.1-.624.803-.416 1.205-1.17 1.205-2.26 0-.632-.101-1.127-.302-1.485-.2-.359-.495-.632-.882-.818-.387-.187-.861-.301-1.42-.344-.56-.044-1.199-.065-1.916-.065h-13.159v.004z"/><path d="m215.773 75.681v-3.792h16.774c1.12 0 2.189.108 3.207.323 1.019.215 1.923.567 2.712 1.054.789.488 1.413 1.141 1.873 1.959.459.818.688 1.844.688 3.078s-.186 2.26-.559 3.077c-.373.818-.854 1.471-1.442 1.959-.589.488-1.234.854-1.937 1.098s-1.385.423-2.045.538l6.5 9.211h-4.735l-6.414-9.125h-10.834v9.125h-3.788v-12.92h3.788v.007h13.374c1.262 0 2.296-.208 3.099-.624.804-.416 1.205-1.17 1.205-2.26 0-.632-.1-1.127-.301-1.485-.201-.359-.495-.632-.882-.818-.388-.187-.861-.301-1.421-.344-.56-.044-1.198-.065-1.915-.065h-13.159v.004z"/></g></svg>