<svg height="28" viewBox="0 0 26 28" width="26" xmlns="http://www.w3.org/2000/svg"><path d="m31.5126953 26.3125h13.0810547v2.34375h-13.0810547c-2.0947266 0-3.6474609-1.2304688-3.7939453-3.0029297-.1171875-1.40625.4541016-2.4902344.9082031-3.3544922.2783203-.5126953.5273438-.9960937.5126953-1.3183593-.0146484-.2783204-.1464843-.4833985-.3808593-.6152344-.3515625-.1904297-.8642579-.1757813-1.2744141.0585937-.8642578.4833985-5.5664063 3.9550781-6.8554688 8.671875-.8203125 2.9736328-.3808593 5.8007813 1.2597657 7.9541016 1.6113281 2.109375 4.1601562 3.3251953 7.0166015 3.3251953h12.8759766v2.34375h-12.8759766c-3.5888672 0-6.8115234-1.5380859-8.8769531-4.2480469-2.0800781-2.7539062-2.6806641-6.3134765-1.6552734-10.0048828 1.4941406-5.4638672 6.7529297-9.4042969 7.96875-10.0927734 1.1132812-.6298828 2.4755859-.6445313 3.5449218-.0585938.9375.5126953 1.5234375 1.4355469 1.5820313 2.5341797.0585937.9814453-.3808594 1.8017578-.7763672 2.5488281-.3808594.7177735-.703125 1.3476563-.6445312 2.0654297.0439453.6298828.8203125.8496094 1.4648437.8496094zm-.0439453 7.03125v-2.34375h13.125v2.34375zm0 4.6875v-2.34375h12.65625v2.34375z" fill="#93dddf" fill-rule="evenodd" transform="matrix(0 -1 1 0 -17.064516 45.541638)"/></svg>