<svg height="40" viewBox="0 0 120 40" width="120" xmlns="http://www.w3.org/2000/svg"><g fill="#222d40" fill-rule="evenodd" transform=""><path d="m3.89169083 11.9959839 10.03822397-10.24899595h5.1944886l-11.65836992 11.62994835 11.72518012 14.0590935h-5.2111912l-9.28660986-11.4302926-.80172171.7986231v10.6316695h-3.89169083v-25.68904185h3.89169083zm33.49526527 9.2008032h-11.0403762l-2.8728361 6.2392427h-4.1923365l12.7607373-27.30292596 12.3097689 27.30292596h-4.2591466zm-1.5867409-3.6437177-3.8248807-8.73493974-4.0086086 8.73493974zm12.3888276-.5490533v10.4320137h-3.8916909v-25.68904185h4.4094695c2.1602054 0 3.7914701.14974033 4.8938429.44922548 1.113508.29948514 2.0933803.86517082 2.9396463 1.69707401 1.4809656 1.44196551 2.2214373 3.26103319 2.2214373 5.4572576 0 2.35151296-.7905788 4.21494816-2.3717601 5.59036146-1.5811813 1.3754132-3.713517 2.0631096-6.3970712 2.0631096zm0-3.5938038h1.4531206c3.5743605 0 5.3615139-1.3698467 5.3615139-4.1095812 0-2.65099815-1.842828-3.97647734-5.5285393-3.97647734h-1.2860952zm15.1948535-11.66322435v22.04532415h7.5829513v3.6437177h-11.4746421v-25.68904185zm26.0069618 19.44979915h-11.0403762l-2.8728361 6.2392427h-4.1923365l12.7607373-27.30292596 12.3097689 27.30292596h-4.2591466zm-1.5867409-3.6437177-3.8248807-8.73493974-4.0086086 8.73493974zm8.4971367 9.8829604v-27.4360298l18.8070551 19.599541v-17.85255305h3.891691v27.25301205l-18.807055-19.54962708v17.98565688z"/><path d="m0 35.4922547c0-1.1222087.39847926-2.0860545 1.19544973-2.8915662.79363587-.8055118 1.74731845-1.2082616 2.86107635-1.2082616 1.10041948 0 2.04409839.4061921 2.83106505 1.2185886.79030127.8123965 1.18544597 1.7882903 1.18544597 2.9277108 0 1.1463052-.39681198 2.1187568-1.19044785 2.9173839-.79697047.8020694-1.75898944 1.2030981-2.88608575 1.2030981-.99704674 0-1.89237462-.3562787-2.68601049-1.0688469-.87366637-.7882999-1.31049301-1.8209918-1.31049301-3.0981067zm1.17544221.0154906c0 .8812436.28677168 1.6058491.86032365 2.1738382.57021737.567989 1.22879188.8519793 1.97574328.8519793.81030889 0 1.49389256-.2891537 2.05077151-.8674699.55687895-.5852008.83531425-1.2977582.83531425-2.1376936 0-.8502624-.27510075-1.5628198-.82531049-2.1376936-.54687513-.5783162-1.22378969-.8674699-2.03076398-.8674699-.80363968 0-1.48222151.2891537-2.03576586.8674699-.55354434.5714314-.83031236 1.2771042-.83031236 2.1170396zm14.41813829.6092943 2.3908995 3.3975903h-1.4255363l-2.2058299-3.263339h-.210079v3.263339h-1.1654384v-7.9724612h1.3655137c1.0203889 0 1.7573255.1979326 2.2108317.5938038.5001907.4406218.7502823 1.0223716.7502823 1.7452667 0 .5645468-.1567241 1.049912-.4701769 1.4561102-.3134529.4061982-.7269376.6660924-1.2404667.7796902zm-1.4505457-.9139415h.3701392c1.1037541 0 1.6556229-.4354517 1.6556229-1.3063683 0-.8158389-.5368633-1.2237522-1.6106059-1.2237522h-.4151562zm10.4816574-2.5301205v6.8416523h-1.1654385v-6.8416523h-1.775668v-1.1308089h4.7117726v1.1308089zm7.4155039 1.9879518h3.3312532v-3.1187607h1.1654384v7.9724612h-1.1654384v-3.7228915h-3.3312532v3.7228915h-1.1654385v-7.9724612h1.1654385zm9.4012509.8313253c0-1.1222087.3984793-2.0860545 1.1954497-2.8915662.7936359-.8055118 1.7473185-1.2082616 2.8610764-1.2082616 1.1004195 0 2.0440984.4061921 2.831065 1.2185886.7903013.8123965 1.185446 1.7882903 1.185446 2.9277108 0 1.1463052-.396812 2.1187568-1.1904479 2.9173839-.7969704.8020694-1.7589894 1.2030981-2.8860857 1.2030981-.9970468 0-1.8923746-.3562787-2.6860105-1.0688469-.8736664-.7882999-1.310493-1.8209918-1.310493-3.0981067zm1.1754422.0154906c0 .8812436.2867717 1.6058491.8603237 2.1738382.5702173.567989 1.2287918.8519793 1.9757432.8519793.8103089 0 1.4938926-.2891537 2.0507715-.8674699.556879-.5852008.8353143-1.2977582.8353143-2.1376936 0-.8502624-.2751008-1.5628198-.8253105-2.1376936-.5468751-.5783162-1.2237897-.8674699-2.030764-.8674699-.8036397 0-1.4822215.2891537-2.0357658.8674699-.5535444.5714314-.8303124 1.2771042-.8303124 2.1170396zm11.8021542 4.0068846v-7.9724612h1.6206096c.7769629 0 1.3905209.079173 1.8406925.2375215.4835177.1549061.9220116.4182425 1.3154949.7900172.7969705.750434 1.1954497 1.7366548 1.1954497 2.9586919 0 1.2254795-.415152 2.2168637-1.2454685 2.9741825-.4168256.3786593-.8536522.6419958-1.310493.7900172-.4268294.1480214-1.032051.2220309-1.8156831.2220309zm1.1654384-1.1308089h.5251976c.5235329 0 .9586922-.0567981 1.3054911-.1703959.3467989-.1204825.660247-.3115305.9403538-.5731497.5735519-.5404502.8603236-1.2444019.8603236-2.1118761 0-.8743589-.2834371-1.583474-.8503199-2.1273666-.5101945-.4853725-1.2621365-.7280551-2.2558486-.7280551h-.5251976zm9.3262227-2.8915663c0-1.1222087.3984793-2.0860545 1.1954497-2.8915662.7936359-.8055118 1.7473185-1.2082616 2.8610764-1.2082616 1.1004195 0 2.0440984.4061921 2.831065 1.2185886.7903013.8123965 1.185446 1.7882903 1.185446 2.9277108 0 1.1463052-.396812 2.1187568-1.1904479 2.9173839-.7969704.8020694-1.7589894 1.2030981-2.8860857 1.2030981-.9970467 0-1.8923746-.3562787-2.6860105-1.0688469-.8736664-.7882999-1.310493-1.8209918-1.310493-3.0981067zm1.1754422.0154906c0 .8812436.2867717 1.6058491.8603237 2.1738382.5702173.567989 1.2287918.8519793 1.9757432.8519793.8103089 0 1.4938926-.2891537 2.0507715-.8674699.556879-.5852008.8353143-1.2977582.8353143-2.1376936 0-.8502624-.2751007-1.5628198-.8253105-2.1376936-.5468751-.5783162-1.2237897-.8674699-2.030764-.8674699-.8036397 0-1.4822215.2891537-2.0357658.8674699-.5535444.5714314-.8303124 1.2771042-.8303124 2.1170396zm11.8021542 4.0068846v-8.5146299l5.6321188 6.0826162v-5.5404475h1.1654384v8.4578313l-5.6321188-6.0671256v5.5817555zm14.218063-6.8416523v6.8416523h-1.1654385v-6.8416523h-1.775668v-1.1308089h4.7117726v1.1308089zm7.4155039-1.1308089v7.9724612h-1.1654385v-7.9724612zm11.0018532.4285714v1.4251291c-.67359-.5817585-1.370512-.8726334-2.090787-.8726334-.793636 0-1.462214.2943172-2.005754.8829604-.546875.5852009-.820309 1.3012006-.820309 2.1480207 0 .836493.273434 1.5421658.820309 2.1170396.546875.5748737 1.21712.8623063 2.010756.8623063.410157 0 .758617-.0688461 1.045393-.2065404.160061-.0688472.325956-.1617895.497688-.2788296.171732-.1170402.352631-.2581748.542704-.4234079v1.4509466c-.666921.3889865-1.367177.5834768-2.10079.5834768-1.103755 0-2.045766-.3975864-2.826064-1.1927711-.776962-.8020694-1.165438-1.7693575-1.165438-2.9018933 0-1.0154956.325119-1.9208222.975367-2.7160069.800305-.9741873 1.835684-1.4612737 3.106168-1.4612737.693598 0 1.363844.1944903 2.010757.5834768zm9.276204.7590361-.945356.5783133c-.176734-.3166969-.345129-.5232353-.50519-.6196213-.16673-.1101555-.381809-.1652324-.645243-.1652324-.323456 0-.591888.0946634-.805303.2839931-.213414.1858873-.32012.4199642-.32012.7022375 0 .3889865.280102.7022364.840316.9397591l.77029.3253012c.626905.2616192 1.085407.5808931 1.375517.9578313.290111.3769382.435164.8390678.435164 1.3864028 0 .7332222-.236753 1.3390681-.710267 1.8175559-.476849.4819301-1.068732.7228916-1.775668.7228916-.670256 0-1.223792-.2048173-1.660625-.6144579-.430164-.4096406-.698596-.9862269-.805303-1.7297762l1.180444-.2685026c.053354.4681607.146721.7917375.280106.9707401.240091.3442358.590219.5163511 1.050395.5163511.363472 0 .665249-.1256442.90534-.3769363.240092-.2512921.360136-.5697055.360136-.9552496 0-.1549061-.020841-.2969012-.062524-.4259896-.041682-.1290885-.106706-.247848-.195073-.3562823s-.202576-.2099823-.342629-.3046472c-.140053-.0946648-.306781-.1850254-.500188-.2710843l-.745281-.3201377c-1.057069-.461276-1.585596-1.135968-1.585596-2.0240964 0-.5989703.221748-1.0998259.66525-1.5025817.443503-.4061983.995371-.6092944 1.655623-.6092944.890339 0 1.585594.4474999 2.085785 1.3425129z"/></g></svg>