<svg width="260" height="80" viewBox="0 0 260 80" fill="none" xmlns="http://www.w3.org/2000/svg">
<rect width="260" height="80" fill="white"/>
<path d="M4.26709 39.9995C4.26709 59.1838 19.8156 74.7285 38.998 74.7285C58.1766 74.7285 73.7307 59.1838 73.7307 39.9995C73.7307 20.8171 58.1766 5.26865 38.998 5.26865C19.8156 5.26865 4.26709 20.8171 4.26709 39.9995Z" fill="url(#paint0_radial)"/>
<path d="M85.2325 65.1913C85.2325 66.1816 85.5657 67.026 86.2304 67.7243C86.8969 68.4208 87.7131 68.7671 88.6773 68.7671C89.6246 68.7671 90.4334 68.4226 91.1055 67.7299C91.7758 67.0391 92.109 66.191 92.109 65.1913C92.109 64.1896 91.7795 63.3434 91.1186 62.6526C90.4577 61.9599 89.6433 61.6135 88.6773 61.6135C87.7225 61.6135 86.9081 61.9599 86.2378 62.6526C85.5676 63.3434 85.2325 64.1896 85.2325 65.1913ZM88.6773 60.0559C90.1076 60.0559 91.3096 60.5482 92.285 61.5311C93.2585 62.5122 93.7453 63.7347 93.7453 65.1913C93.7453 66.6385 93.2567 67.8573 92.2775 68.8458C91.2984 69.8324 90.0983 70.3267 88.6773 70.3267C87.2488 70.3267 86.0431 69.8324 85.064 68.8458C84.0867 67.8573 83.5962 66.6385 83.5962 65.1913C83.5962 63.7441 84.0867 62.5253 85.064 61.5368C86.0431 60.5501 87.2488 60.0559 88.6773 60.0559Z" fill="#2AACE2"/>
<path d="M103.196 64.8697H103.961C104.559 64.8697 105.027 64.7218 105.362 64.426C105.697 64.1283 105.864 63.7164 105.864 63.1885C105.864 62.7392 105.731 62.376 105.461 62.0933C105.193 61.8106 104.841 61.6683 104.403 61.6683H103.196V64.8697ZM101.629 60.2604H104.497C105.444 60.2604 106.197 60.5187 106.755 61.0317C107.314 61.5484 107.593 62.2449 107.593 63.1173C107.593 63.8662 107.382 64.4822 106.964 64.9671C106.543 65.4501 105.944 65.7646 105.167 65.9106L108.222 70.123H106.253L103.531 66.0904L103.196 66.0997V70.123H101.629V60.2604Z" fill="#2AACE2"/>
<path d="M114.766 60.2604H120.531V61.7226H118.426V70.123H116.831V61.7226H114.766V60.2604Z" fill="#2AACE2"/>
<path d="M127.957 60.273L129.525 60.2599V64.4049H133.949V60.2599H135.531V70.1226H133.949V65.7454H129.525V70.1226H127.957V60.273Z" fill="#2AACE2"/>
<path d="M145.049 65.1913C145.049 66.1816 145.383 67.026 146.047 67.7243C146.714 68.4208 147.528 68.7671 148.494 68.7671C149.442 68.7671 150.25 68.4226 150.922 67.7299C151.591 67.0391 151.928 66.191 151.928 65.1913C151.928 64.1896 151.595 63.3434 150.936 62.6526C150.273 61.9599 149.458 61.6135 148.494 61.6135C147.538 61.6135 146.727 61.9599 146.055 62.6526C145.384 63.3434 145.049 64.1896 145.049 65.1913ZM148.494 60.0559C149.925 60.0559 151.126 60.5482 152.102 61.5311C153.075 62.5122 153.562 63.7347 153.562 65.1913C153.562 66.6385 153.072 67.8573 152.094 68.8458C151.115 69.8324 149.915 70.3267 148.494 70.3267C147.064 70.3267 145.86 69.8324 144.881 68.8458C143.904 67.8573 143.413 66.6385 143.413 65.1913C143.413 63.7441 143.904 62.5253 144.881 61.5368C145.86 60.5501 147.064 60.0559 148.494 60.0559Z" fill="#2AACE2"/>
<path d="M163.053 68.6597H164.232C165.305 68.6597 166.125 68.3582 166.686 67.7591C167.25 67.1563 167.533 66.2839 167.533 65.1362C167.533 63.6909 167.244 62.7904 166.673 62.4403C166.1 62.0902 165.674 61.8823 165.393 61.8206C165.112 61.755 164.76 61.7232 164.339 61.7232H163.053V68.6597ZM161.444 60.261H164.26C164.869 60.261 165.35 60.291 165.702 60.3546C166.056 60.4202 166.52 60.5812 167.095 60.8414C167.673 61.1016 168.169 61.6128 168.59 62.3803C169.012 63.1461 169.22 64.0578 169.22 65.1156C169.22 66.2015 169.008 67.1469 168.583 67.9538C168.16 68.7607 167.675 69.2924 167.128 69.5489C166.585 69.8017 166.138 69.9627 165.795 70.0263C165.451 70.09 165.02 70.1218 164.5 70.1218H161.444V60.261Z" fill="#2AACE2"/>
<path d="M178.377 65.1913C178.377 66.1816 178.711 67.026 179.375 67.7243C180.042 68.4208 180.856 68.7671 181.822 68.7671C182.769 68.7671 183.578 68.4226 184.25 67.7299C184.919 67.0391 185.256 66.191 185.256 65.1913C185.256 64.1896 184.922 63.3434 184.263 62.6526C183.601 61.9599 182.786 61.6135 181.822 61.6135C180.865 61.6135 180.055 61.9599 179.383 62.6526C178.712 63.3434 178.377 64.1896 178.377 65.1913ZM181.822 60.0559C183.252 60.0559 184.454 60.5482 185.43 61.5311C186.403 62.5122 186.89 63.7347 186.89 65.1913C186.89 66.6385 186.4 67.8573 185.422 68.8458C184.443 69.8324 183.243 70.3267 181.822 70.3267C180.392 70.3267 179.188 69.8324 178.209 68.8458C177.231 67.8573 176.741 66.6385 176.741 65.1913C176.741 63.7441 177.231 62.5253 178.209 61.5368C179.188 60.5501 180.392 60.0559 181.822 60.0559Z" fill="#2AACE2"/>
<path d="M194.772 59.8874L201.208 66.1293C201.27 66.191 201.332 66.2584 201.394 66.3258C201.455 66.3951 201.527 66.485 201.601 66.601C201.678 66.7134 201.749 66.8332 201.811 66.9549C201.873 67.0785 201.94 67.2357 202.011 67.4267C201.993 67.217 201.972 67.0185 201.944 66.8257C201.918 66.6347 201.905 66.4831 201.905 66.3745V65.7997V60.26H203.472V70.5532L197.063 64.2964L196.715 63.8733C196.635 63.7628 196.554 63.6467 196.474 63.5232C196.393 63.3996 196.264 63.1918 196.086 62.8997C196.195 63.2086 196.266 63.4408 196.299 63.5962C196.335 63.7516 196.356 63.9126 196.356 64.0755V64.6221V70.1226H194.772V59.8874Z" fill="#2AACE2"/>
<path d="M210.899 60.2604H216.664V61.7226H214.56V70.123H212.964V61.7226H210.899V60.2604Z" fill="#2AACE2"/>
<path d="M224.092 60.2604L225.674 60.2735V70.123H224.092V60.2604Z" fill="#2AACE2"/>
<path d="M241.103 62.7762C240.345 62.0105 239.495 61.6286 238.557 61.6286C237.628 61.6286 236.836 61.9768 236.183 62.6733C235.53 63.3716 235.206 64.2178 235.206 65.2119C235.206 66.2248 235.531 67.0748 236.19 67.7637C236.848 68.4508 237.653 68.7953 238.611 68.7953C239.512 68.7953 240.345 68.434 241.103 67.7151V69.6022L240.929 69.6846L240.206 70.0122C240.008 70.0946 239.77 70.1639 239.489 70.2182C239.205 70.2725 238.928 70.3005 238.649 70.3005C237.211 70.3005 236.005 69.8175 235.032 68.8496C234.056 67.8854 233.569 66.676 233.569 65.2269C233.569 63.776 234.06 62.5534 235.045 61.5612C236.028 60.5652 237.233 60.0691 238.664 60.0691C239.147 60.0691 239.543 60.114 239.858 60.2057C240.169 60.2975 240.586 60.4884 241.103 60.7805V62.7762Z" fill="#2AACE2"/>
<path d="M249.146 67.7565C249.655 68.468 250.263 68.8237 250.969 68.8237C251.407 68.8237 251.767 68.6833 252.049 68.4062C252.33 68.1272 252.471 67.7753 252.471 67.3447C252.471 66.8354 252.222 66.4292 251.72 66.1277L251.52 66.0323L251.291 65.9237L250.754 65.7028C250.209 65.4575 249.694 65.1542 249.206 64.7948C248.719 64.4353 248.477 63.8119 248.477 62.9282C248.477 62.1063 248.767 61.4173 249.346 60.8613C249.928 60.3071 250.643 60.0263 251.493 60.0263C252.233 60.0263 252.772 60.1517 253.107 60.3989C253.444 60.6479 253.637 60.7976 253.691 60.8482C253.744 60.8969 253.834 60.9942 253.959 61.1384L253.021 62.2973C252.592 61.7599 252.106 61.4904 251.559 61.4904C251.156 61.4904 250.831 61.6158 250.582 61.861C250.331 62.1063 250.205 62.4264 250.205 62.8196C250.205 63.2951 250.333 63.6134 250.589 63.78C250.842 63.9448 251.012 64.0478 251.096 64.0871C251.181 64.1301 251.364 64.205 251.639 64.3117L252.149 64.5195L252.873 64.8753C253.749 65.3676 254.186 66.1577 254.186 67.2454C254.186 68.1684 253.884 68.9192 253.281 69.4996C252.678 70.0781 251.9 70.3701 250.943 70.3701C250.041 70.3701 249.398 70.2091 249.02 69.8908C248.638 69.5707 248.408 69.361 248.328 69.2618C248.249 69.1607 248.168 69.0652 248.088 68.9716L249.146 67.7565Z" fill="#2AACE2"/>
<path d="M84.9209 19.1153H90.9849V32.7485V34.4597C90.8819 35.4257 90.691 36.5322 90.4158 37.7772C91.0092 36.5416 91.5522 35.6148 92.0427 34.997L93.1454 33.6603L105.507 19.1228L113.067 19.1153L97.2062 37.3616L115.037 56.4878L106.805 56.4803L93.5685 41.6713L90.9849 44.5713V56.4878H84.9209V19.1153Z" fill="#2AACE2"/>
<path d="M123.585 42.9062H134.168L130.385 34.3017C129.759 32.8713 129.353 31.7649 129.162 30.9786C128.971 30.1941 128.878 29.0521 128.878 27.5525C128.878 28.8836 128.835 29.801 128.749 30.3083C128.662 30.8176 128.43 31.5795 128.052 32.5943L127.369 34.3017L123.585 42.9062ZM128.878 17.7048L146.969 56.4889L140.221 56.4927L136.636 48.1952H121.117L117.542 56.4721L110.785 56.4889L128.878 17.7048Z" fill="#2AACE2"/>
<path d="M151.58 36.4805H154.845C159.683 36.4805 162.101 34.3556 162.101 30.1038C162.101 28.2392 161.575 26.7957 160.521 25.7772C159.467 24.7569 157.971 24.2477 156.037 24.2477H151.58V36.4805ZM145.463 19.116H157.282C160.703 19.116 163.431 20.1008 165.471 22.0703C167.51 24.0398 168.531 26.7189 168.531 30.1038C168.531 32.5583 167.976 34.7188 166.866 36.5853C165.756 38.45 164.352 39.7287 162.654 40.4196C160.956 41.1123 158.773 41.4568 156.103 41.4568H151.58V56.4885H145.463V19.116Z" fill="#2AACE2"/>
<path d="M170.708 19.1153H176.824V50.9424H188.331V56.4878H170.708V19.1153Z" fill="#2AACE2"/>
<path d="M199.42 42.9062H210.001L206.219 34.3017C205.594 32.8713 205.188 31.7649 204.997 30.9786C204.806 30.1941 204.71 29.0521 204.71 27.5525C204.71 28.8836 204.667 29.801 204.583 30.3083C204.497 30.8176 204.263 31.5795 203.887 32.5943L203.203 34.3017L199.42 42.9062ZM204.71 17.7048L222.803 56.4889L216.056 56.4927L212.47 48.1952H196.95L193.374 56.4721L186.619 56.4889L204.71 17.7048Z" fill="#2AACE2"/>
<path d="M221.297 17.7039L246.176 41.3533C246.418 41.5967 246.661 41.8476 246.902 42.106C247.146 42.3643 247.412 42.7107 247.706 43.1413C248.001 43.5756 248.267 44.0231 248.511 44.4892C248.752 44.9554 249.011 45.5526 249.288 46.2772C249.218 45.4834 249.132 44.7214 249.029 43.9969C248.926 43.2704 248.872 42.7013 248.872 42.2857V40.1083V19.1155H254.938V58.1206L230.15 34.4169L228.808 32.8068C228.497 32.3931 228.186 31.9512 227.877 31.4832C227.567 31.017 227.067 30.2269 226.378 29.1205C226.793 30.2962 227.067 31.1761 227.205 31.764C227.342 32.3519 227.413 32.9566 227.413 33.5782V35.6507V56.4881H221.297V17.7039Z" fill="#2AACE2"/>
<path d="M75.9962 40C75.9962 60.4368 59.4311 77 38.9981 77C18.5613 77 2 60.4368 2 40C2 19.5633 18.5613 3.00008 38.9981 3.00008C59.4311 3.00008 75.9962 19.5633 75.9962 40Z" stroke="#2AACE2" stroke-width="0.245"/>
<path d="M24.2649 56.4375V23.5788C24.2649 22.5117 24.6375 21.6074 25.3826 20.8604C26.1315 20.1134 27.0376 19.739 28.1047 19.739H31.8435V34.782L46.1488 19.739H55.652L40.918 34.5667L56.9345 56.4375H47.7514L38.4617 43.4108C36.8254 41.2784 35.3145 40.4416 33.9254 40.904C32.5343 41.3664 31.8435 42.2389 31.8435 43.5213V56.4375H24.2649Z" fill="white"/>
<defs>
<radialGradient id="paint0_radial" cx="0" cy="0" r="1" gradientUnits="userSpaceOnUse" gradientTransform="translate(25.1192 23.1969) scale(44.433)">
<stop stop-color="#AEDEEF"/>
<stop offset="0.707549" stop-color="#2AACE2"/>
<stop offset="1" stop-color="#2AACE2"/>
</radialGradient>
</defs>
</svg>
