<svg height="28" viewBox="0 0 18 28" width="18" xmlns="http://www.w3.org/2000/svg"><path d="m31.40625 36.09375h-2.34375v-7.0166016l-2.6367188-2.6367187 1.6552735-1.6552735 2.1533203 2.1533204 2.1533203-2.1533204 1.6552735 1.6552735-2.6367188 2.6367187zm5.5664062-16.1865234c1.3916016 1.5380859 2.109375 3.75 1.9042969 5.9326172-.2490234 2.6367187-1.1425781 3.9697265-2.1972656 5.3173828l-.1464844.1904296c-.5126953.6445313-.9082031 1.1425782-.9082031 2.2265626v2.5195312h-2.34375v-2.5195312c0-1.9042969.8203125-2.9296876 1.4208984-3.6914063l.131836-.1611328c.8789062-1.1279297 1.5234375-2.0800781 1.6992187-4.1015625.0585938-.5859375.131836-2.578125-1.2890625-4.1308594-1.0986328-1.2011719-2.7685547-1.8017578-5.0097656-1.8017578-2.2265625 0-3.9111328.6005859-4.9951172 1.8017578-1.4208984 1.5673828-1.3623047 3.5449219-1.3037109 4.1308594.1904297 2.0214844.8203125 2.9736328 1.6992187 4.1015625l.1464844.2050781c.6005859.7470703 1.40625 1.772461 1.40625 3.647461v2.5195312h-2.34375v-2.5195312c0-1.0546876-.3808594-1.5527344-.8789062-2.1826172l-.1757813-.234375c-1.0546875-1.3476563-1.9482422-2.6806641-2.1972656-5.3173828-.2050781-2.1826172.5126953-4.3945313 1.9042969-5.9326172 1.0693359-1.171875 3.1054687-2.5634766 6.7382812-2.5634766s5.6689453 1.3916016 6.7382812 2.5634766zm-12.1289062 20.4052734v-2.34375h10.78125v2.34375zm2.34375 4.21875v-2.34375h6.09375v2.34375z" fill="#93dddf" fill-rule="evenodd" transform="translate(-21 -17)"/></svg>