<svg height="37" viewBox="0 0 111 37" width="111" xmlns="http://www.w3.org/2000/svg"><g fill="#fff" fill-rule="evenodd" transform=""><path d="m3.59736127 10.7550201 9.27903053-9.18875504h4.8016282l-10.77664452 10.42685024 10.83840172 12.6047046h-4.8170674l-8.58426123-10.2478486-.7410873.7160069v9.5318417h-3.59736127v-23.03155484h3.59736127zm30.96200993 8.248996h-10.2053897l-2.6555629 5.5938038h-3.875269l11.7956396-24.47848542 11.3787779 24.47848542h-3.9370263zm-1.4667353-3.2667814-3.535604-7.83132535-3.7054365 7.83132535zm11.4518574-.4922548v9.35284h-3.5973613v-23.03155484h4.0759802c1.9968285 0 3.5047203.13424995 4.5237204.40275387 1.029293.26850393 1.9350574.7756704 2.7173201 1.52151463 1.3689598 1.29279668 2.0534294 2.92368494 2.0534294 4.89271371 0 2.10825303-.7307871 3.77891903-2.1923833 5.01204823-1.4615961 1.2331291-3.4326628 1.8496844-5.9132591 1.8496844zm0-3.222031h1.3432207c3.3040308 0 4.9560214-1.2281384 4.9560214-3.68445206 0-2.37675695-1.7034545-3.56511761-5.1104145-3.56511761h-1.1888276zm14.045663-10.45668384v19.76477334h7.0094507v3.2667815h-10.606812v-23.03155484zm24.0400486 17.43775104h-10.2053897l-2.6555628 5.5938038h-3.875269l11.7956395-24.47848542 11.378778 24.47848542h-3.9370263zm-1.4667352-3.2667814-3.535604-7.83132535-3.7054365 7.83132535zm7.8544961 8.8605852v-24.5978199l17.3846732 17.5720023v-16.00573724h3.597361v24.43373494l-17.3846729-17.52725186v16.12507176z"/><path d="m0 32.9931153c0-.9975188.36859332-1.8542706 1.105791-2.5702811.73411318-.7160105 1.61626957-1.0740103 2.64649562-1.0740103 1.01788802 0 1.89079102.3610597 2.61873518 1.0831899.73102867.7221302 1.09653752 1.5895914 1.09653752 2.6024096 0 1.018938-.36705108 1.8833394-1.10116426 2.5932301-.73719769.7129506-1.62706523 1.0694205-2.66962932 1.0694205-.92226824 0-1.75044653-.3166922-2.4845597-.950086-.8081414-.7007111-1.21220604-1.6186595-1.21220604-2.7538727zm1.08728404.0137694c0 .7833277.26526381 1.4274214.79579938 1.9323006.52745107.5048792 1.13663249.757315 1.82756254.757315.74953572 0 1.38185061-.2570256 1.89696364-.7710844.51511303-.5201785.77266568-1.1535629.77266568-1.9001721 0-.7557888-.25446819-1.3891732-.7634122-1.9001721-.5058595-.5140588-1.13200546-.7710843-1.87845668-.7710843-.74336671 0-1.3710549.2570255-1.88308342.7710843-.51202852.5079391-.76803894 1.1352038-.76803894 1.881813zm13.33677796.5415949 2.211582 3.0200804h-1.3186211l-2.0403926-2.9007459h-.1943231v2.9007459h-1.0780306v-7.0866323h1.2631002c.9438598 0 1.6255261.1759401 2.0450194.5278256.4626763.3916638.694011.9087748.694011 1.5513482 0 .5018193-.1449697.9332551-.4349136 1.2943202-.2899438.3610651-.6724172.5920821-1.1474316.6930579zm-1.3417548-.8123924h.3423788c1.0209725 0 1.5314511-.3870682 1.5314511-1.1612163 0-.7251901-.4965985-1.0877797-1.4898104-1.0877797h-.3840195zm9.6955331-2.248996v6.0814688h-1.0780306v-6.0814688h-1.6424929v-1.0051635h4.3583896v1.0051635zm6.8593411 1.7670683h3.0814092v-2.7722318h1.0780306v7.0866323h-1.0780306v-3.309237h-3.0814092v3.309237h-1.0780306v-7.0866323h1.0780306zm8.6961571.7389558c0-.9975188.3685933-1.8542706 1.105791-2.5702811.7341131-.7160105 1.6162695-1.0740103 2.6464956-1.0740103 1.017888 0 1.890791.3610597 2.6187352 1.0831899.7310286.7221302 1.0965375 1.5895914 1.0965375 2.6024096 0 1.018938-.3670511 1.8833394-1.1011643 2.5932301-.7371977.7129506-1.6270652 1.0694205-2.6696293 1.0694205-.9222682 0-1.7504465-.3166922-2.4845597-.950086-.8081414-.7007111-1.212206-1.6186595-1.212206-2.7538727zm1.087284.0137694c0 .7833277.2652638 1.4274214.7957994 1.9323006.5274511.5048792 1.1366325.757315 1.8275625.757315.7495357 0 1.3818506-.2570256 1.8969637-.7710844.515113-.5201785.7726656-1.1535629.7726656-1.9001721 0-.7557888-.2544681-1.3891732-.7634121-1.9001721-.5058596-.5140588-1.1320055-.7710843-1.8784567-.7710843-.7433667 0-1.3710549.2570255-1.8830835.7710843-.5120285.5079391-.7680389 1.1352038-.7680389 1.881813zm10.9169926 3.5616753v-7.0866323h1.499064c.7186906 0 1.2862318.0703761 1.7026405.2111302.4472538.1376944.8528607.3717712 1.2168328.7022376.7371977.6670525 1.105791 1.5436931 1.105791 2.6299483 0 1.0893151-.3840157 1.9705455-1.1520584 2.6437178-.3855637.3365861-.7896283.5706629-1.2122061.7022375-.3948171.1315746-.9546472.1973609-1.6795068.1973609zm1.0780306-1.0051636h.4858077c.484268 0 .8867904-.0504871 1.2075793-.151463.320789-.1070955.6107285-.276916.8698272-.5094664.5305356-.4804002.7957994-1.106135.7957994-1.8772232 0-.7772079-.2621793-1.4075325-.7865459-1.8909925-.4719299-.4314422-1.1674763-.6471601-2.08666-.6471601h-.4858077zm8.626756-2.5702811c0-.9975188.3685933-1.8542706 1.105791-2.5702811.7341131-.7160105 1.6162695-1.0740103 2.6464956-1.0740103 1.017888 0 1.890791.3610597 2.6187352 1.0831899.7310286.7221302 1.0965375 1.5895914 1.0965375 2.6024096 0 1.018938-.3670511 1.8833394-1.1011643 2.5932301-.7371977.7129506-1.6270652 1.0694205-2.6696293 1.0694205-.9222682 0-1.7504465-.3166922-2.4845597-.950086-.8081414-.7007111-1.212206-1.6186595-1.212206-2.7538727zm1.087284.0137694c0 .7833277.2652638 1.4274214.7957994 1.9323006.527451.5048792 1.1366325.757315 1.8275625.757315.7495357 0 1.3818506-.2570256 1.8969637-.7710844.515113-.5201785.7726656-1.1535629.7726656-1.9001721 0-.7557888-.2544681-1.3891732-.7634122-1.9001721-.5058595-.5140588-1.1320054-.7710843-1.8784566-.7710843-.7433667 0-1.3710549.2570255-1.8830835.7710843-.5120285.5079391-.7680389 1.1352038-.7680389 1.881813zm10.9169926 3.5616753v-7.56856l5.2097099 5.4067699v-4.9248422h1.0780306v7.5180723l-5.2097099-5.3930006v4.9615606zm13.1517083-6.0814688v6.0814688h-1.0780306v-6.0814688h-1.6424929v-1.0051635h4.3583897v1.0051635zm6.8593411-1.0051635v7.0866323h-1.0780306v-7.0866323zm10.1767143.3809524v1.2667814c-.623071-.5171187-1.267724-.7756741-1.933978-.7756741-.734113 0-1.3525478.2616153-1.8553228.7848537-.5058595.5201785-.7587854 1.1566227-.7587854 1.9093517 0 .7435493.2529259 1.370814.7587854 1.8818129.5058595.510999 1.1258366.7664946 1.8599498.7664946.379395 0 .701721-.0611966.966989-.1835915.148056-.0611975.301508-.1438129.46036-.2478486.158853-.1040357.326185-.2294886.502002-.3763626v1.2897304c-.616902.3457657-1.264639.518646-1.943231.518646-1.0209728 0-1.8923336-.3534101-2.6141087-1.060241-.7186906-.7129505-1.0780306-1.5727622-1.0780306-2.5794607 0-.9026627.3007352-1.7073975.9022145-2.4142283.7402822-.8659443 1.6980079-1.2989099 2.8732058-1.2989099.641578 0 1.261555.1728803 1.85995.518646zm8.580488.6746988-.874454.5140562c-.163479-.2815084-.319244-.465098-.4673-.5507745-.154226-.097916-.353174-.1468732-.59685-.1468732-.299197 0-.547497.0841452-.744905.2524383-.197409.1652332-.296112.3733015-.296112.6242111 0 .3457658.259095.6242101.777293.8353414l.712518.2891566c.579888.2325504 1.004001.5163495 1.272354.8514056.268352.3350562.402526.7458381.402526 1.2323581 0 .6517531-.218997 1.1902828-.656997 1.6156052-.441085.4283824-.988577.6425703-1.642493.6425703-.619986 0-1.132007-.1820597-1.536078-.5461847-.397902-.364125-.646201-.8766462-.744905-1.5375789l1.091911-.238669c.049352.4161429.135717.7037667.259097.8628801.222085.3059874.545953.4589788.971616.4589788.336211 0 .615355-.1116837.83744-.3350545.222084-.2233708.333125-.5064049.333125-.8491107 0-.1376944-.019278-.2639123-.057834-.3786575-.038557-.1147453-.098704-.2203094-.180443-.3166954-.08174-.096386-.187383-.1866509-.316932-.2707975-.129549-.0841465-.283772-.164467-.462674-.2409638l-.689384-.2845669c-.97779-.410023-1.466677-1.0097493-1.466677-1.7991967 0-.5324181.205117-.977623.615356-1.3356283.41024-.3610651.920719-.5415949 1.531452-.5415949.823563 0 1.466674.3977776 1.92935 1.1933448z"/></g></svg>