<?xml version="1.0" standalone="no"?>
<!DOCTYPE svg PUBLIC "-//W3C//DTD SVG 20010904//EN"
 "http://www.w3.org/TR/2001/REC-SVG-20010904/DTD/svg10.dtd">
<svg version="1.0" xmlns="http://www.w3.org/2000/svg"
 width="1000.000000pt" height="1000.000000pt" viewBox="0 0 1000.000000 1000.000000"
 preserveAspectRatio="xMidYMid meet">
<metadata>
Created by potrace 1.11, written by Peter Selinger 2001-2013
</metadata>
<g transform="translate(0.000000,1000.000000) scale(0.100000,-0.100000)"
fill="#000000" stroke="none">
<path d="M4700 9099 c-120 -11 -200 -19 -237 -25 -18 -2 -50 -6 -70 -9 -65 -9
-205 -36 -288 -55 -45 -11 -92 -21 -105 -24 -41 -9 -190 -52 -285 -84 -566
-187 -1080 -492 -1514 -897 -540 -505 -937 -1145 -1141 -1840 -35 -121 -65
-236 -75 -290 -5 -22 -9 -44 -11 -50 -13 -54 -52 -299 -60 -380 -15 -163 -19
-242 -19 -445 0 -210 6 -355 20 -460 2 -19 7 -55 10 -80 125 -988 633 -1928
1395 -2582 132 -113 417 -328 435 -328 3 0 32 -17 63 -38 91 -61 196 -120 362
-203 352 -176 734 -302 1120 -368 123 -21 137 -23 305 -42 183 -21 673 -17
855 6 19 2 55 7 80 10 39 5 208 32 250 40 47 9 171 37 205 45 22 6 47 12 56
14 233 56 600 198 844 326 157 83 432 251 510 312 6 4 55 43 110 85 630 485
1109 1147 1374 1898 64 180 147 495 166 630 4 28 9 59 12 70 31 161 48 383 48
655 0 290 -12 455 -50 675 -22 131 -24 142 -36 195 -6 25 -13 56 -15 70 -3 14
-7 33 -10 42 -3 9 -7 25 -9 35 -16 78 -118 393 -154 478 -5 11 -23 56 -41 100
-38 92 -144 312 -194 400 -66 119 -80 142 -160 265 -91 139 -183 262 -290 390
-88 105 -80 95 -209 228 -390 401 -826 697 -1362 927 -148 63 -479 172 -605
199 -14 3 -55 12 -91 20 -102 23 -108 24 -284 51 -49 8 -115 17 -145 20 -30 3
-71 8 -90 11 -62 9 -582 11 -670 3z"/>
</g>
</svg>
