<svg height="24" viewBox="0 0 24 24" width="24" xmlns="http://www.w3.org/2000/svg"><path d="m41.6162109 39.9609375-1.6552734 1.6552734-6.1669922-6.1669921c-1.6699219 1.3037109-3.7207031 2.0214843-5.8886719 2.0214843-2.5488281 0-4.9511718-.9960937-6.7675781-2.7978515-1.8017578-1.8017578-2.7978515-4.2041016-2.7978515-6.7675782 0-2.5634765.9960937-4.9658203 2.7978515-6.7675781 1.8164063-1.8017578 4.21875-2.7978515 6.7675781-2.7978515 2.5634766 0 4.9658204.9960937 6.7675782 2.7978515 1.8164062 1.8017578 2.8125 4.2041016 2.8125 6.7675781 0 2.1679688-.7324219 4.21875-2.0361328 5.8886719zm-18.8378906-6.9433594c1.3769531 1.3769531 3.1933594 2.1240235 5.1269531 2.1240235 1.9335938 0 3.75-.7470704 5.1269532-2.1240235 1.3623046-1.3623047 2.109375-3.1787109 2.109375-5.1123047 0-1.9335937-.7470704-3.75-2.109375-5.1269531-1.3769532-1.3623047-3.1933594-2.109375-5.1269532-2.109375-1.9335937 0-3.75.7470703-5.1123046 2.109375-1.3769532 1.3769531-2.1240235 3.1933594-2.1240235 5.1269531 0 1.9335938.7470703 3.75 2.109375 5.1123047z" fill="#93dddf" fill-rule="evenodd" transform="translate(-18 -18)"/></svg>