<?xml version="1.0" encoding="UTF-8"?>
<svg width="24px" height="24px" viewBox="0 0 24 24" version="1.1" xmlns="http://www.w3.org/2000/svg" xmlns:xlink="http://www.w3.org/1999/xlink">
    <!-- Generator: Sketch 51.2 (57519) - http://www.bohemiancoding.com/sketch -->
    <title>search</title>
    <desc>Created with Sketch.</desc>
    <defs></defs>
    <g id="Page-1" stroke="none" stroke-width="1" fill="none" fill-rule="evenodd">
        <g id="Concept-Two" transform="translate(-1072.000000, -3561.000000)" fill="#93DDDF">
            <g id="Group-4-Copy" transform="translate(1054.000000, 3381.000000)">
                <g id="Group-Copy-2" transform="translate(0.000000, 162.000000)">
                    <path d="M41.6162109,39.9609375 L39.9609375,41.6162109 L33.7939453,35.4492188 C32.1240234,36.7529297 30.0732422,37.4707031 27.9052734,37.4707031 C25.3564453,37.4707031 22.9541016,36.4746094 21.1376953,34.6728516 C19.3359375,32.8710938 18.3398438,30.46875 18.3398438,27.9052734 C18.3398438,25.3417969 19.3359375,22.9394531 21.1376953,21.1376953 C22.9541016,19.3359375 25.3564453,18.3398438 27.9052734,18.3398438 C30.46875,18.3398438 32.8710938,19.3359375 34.6728516,21.1376953 C36.4892578,22.9394531 37.4853516,25.3417969 37.4853516,27.9052734 C37.4853516,30.0732422 36.7529297,32.1240234 35.4492188,33.7939453 L41.6162109,39.9609375 Z M22.7783203,33.0175781 C24.1552734,34.3945312 25.9716797,35.1416016 27.9052734,35.1416016 C29.8388672,35.1416016 31.6552734,34.3945312 33.0322266,33.0175781 C34.3945312,31.6552734 35.1416016,29.8388672 35.1416016,27.9052734 C35.1416016,25.9716797 34.3945312,24.1552734 33.0322266,22.7783203 C31.6552734,21.4160156 29.8388672,20.6689453 27.9052734,20.6689453 C25.9716797,20.6689453 24.1552734,21.4160156 22.7929688,22.7783203 C21.4160156,24.1552734 20.6689453,25.9716797 20.6689453,27.9052734 C20.6689453,29.8388672 21.4160156,31.6552734 22.7783203,33.0175781 Z" id="search"></path>
                </g>
            </g>
        </g>
    </g>
</svg>