<svg height="21" viewBox="0 0 34 21" width="34" xmlns="http://www.w3.org/2000/svg"><path d="m705.79834 4421.14746-.170899 2.29004h-2.529296l.170898-2.51221c.290527-3.26416 2.785645-5.12695 6.853027-5.12695.444336 0 .854492.01709 1.264649.06836-.529785.76904-.888672 1.64062-1.09375 2.63184-.05127 0-.102539-.01709-.170899-.01709-3.930664 0-4.272461 2.0166-4.32373 2.66601zm30.932617-.23926.187988 2.5293h-2.546386l-.170899-2.30713c-.051269-.63232-.393066-2.64892-4.32373-2.64892-.05127 0-.102539.01709-.170899.01709-.187988-.99122-.563965-1.8628-1.07666-2.63184.393067-.05127.820313-.06836 1.247559-.06836 4.067382 0 6.5625 1.86279 6.853027 5.10986zm-22.045898-1.16211-.307618 3.69141h-2.546386l.307617-3.87939c.341797-3.43506 3.195801-5.4004 7.861328-5.4004s7.519531 1.96534 7.861328 5.38331l.307617 3.89648h-2.546386l-.307618-3.7085c-.187988-1.91406-2.084961-2.88818-5.314941-2.88818s-5.126953.97412-5.314941 2.90527zm-5.075684-5.05859c-2.495117 0-4.375-2.13623-4.375-4.99023 0-2.49512 1.845703-4.30665 4.375-4.30665s4.375 1.81153 4.375 4.30665c0 2.854-1.879883 4.99023-4.375 4.99023zm0-6.66504c-.837402 0-1.726074.44434-1.726074 1.65772 0 1.36718.734863 2.37548 1.726074 2.37548 1.008301 0 1.726074-1.0083 1.726074-2.37548 0-1.21338-.888672-1.65772-1.726074-1.65772zm20.234375 6.66504c-2.495117 0-4.375-2.13623-4.375-4.99023 0-2.49512 1.845703-4.30665 4.375-4.30665 2.495117 0 4.375 1.8628 4.375 4.30665 0 2.854-1.879883 4.99023-4.375 4.99023zm-.01709-6.66504c-.837402 0-1.726074.44434-1.726074 1.65772 0 1.36718.734863 2.37548 1.726074 2.37548s1.726074-1.0083 1.726074-2.37548c0-1.28174-.888672-1.65772-1.726074-1.65772zm-10.100098 5.02442c-2.648925 0-4.648437-2.27295-4.648437-5.28077 0-2.56347 2.033691-4.56299 4.648437-4.56299 2.614747 0 4.648438 1.99952 4.648438 4.56299 0 3.00782-1.999512 5.28077-4.648438 5.28077zm0-7.21192c-1.145019 0-2.016601.82031-2.016601 1.91406 0 1.53809.854492 2.66602 2.016601 2.66602 1.16211 0 2.016602-1.12793 2.016602-2.66602 0-1.09375-.871582-1.91406-2.016602-1.91406z" fill="#99fff6" fill-rule="evenodd" transform="translate(-703 -4403)"/></svg>