<svg height="47" viewBox="0 0 79 47" width="79" xmlns="http://www.w3.org/2000/svg"><path d="m189.039062 109.765625-.390624 5.234375h-5.78125l.390624-5.742188c.664063-7.460937 6.367188-11.7187495 15.664063-11.7187495 1.015625 0 1.953125.0390625 2.890625.15625-1.210938 1.7578125-2.03125 3.7499995-2.5 6.0156255-.117188 0-.234375-.039063-.390625-.039063-8.984375 0-9.765625 4.609375-9.882813 6.09375zm70.703126-.546875.429687 5.78125h-5.820313l-.390624-5.273438c-.117188-1.445312-.898438-6.054687-9.882813-6.054687-.117187 0-.234375.039063-.390625.039063-.429688-2.265626-1.289062-4.257813-2.460938-6.0156255.898438-.1171875 1.875-.15625 2.851563-.15625 9.296875 0 15 4.2578125 15.664063 11.6796875zm-50.390626-2.65625-.703124 8.4375h-5.820313l.703125-8.867188c.78125-7.851562 7.304688-12.3437495 17.96875-12.3437495s17.1875 4.4921875 17.96875 12.3046875l.703125 8.90625h-5.820313l-.703124-8.476562c-.429688-4.375-4.765626-6.601563-12.148438-6.601563s-11.71875 2.226563-12.148438 6.640625zm-11.601562-11.5625c-5.703125 0-10-4.8828125-10-11.40625 0-5.703125 4.21875-9.84375 10-9.84375s10 4.140625 10 9.84375c0 6.5234375-4.296875 11.40625-10 11.40625zm0-15.234375c-1.914062 0-3.945312 1.015625-3.945312 3.7890625 0 3.125 1.679687 5.4296875 3.945312 5.4296875 2.304688 0 3.945312-2.3046875 3.945312-5.4296875 0-2.7734375-2.03125-3.7890625-3.945312-3.7890625zm46.25 15.234375c-5.703125 0-10-4.8828125-10-11.40625 0-5.703125 4.21875-9.84375 10-9.84375 5.703125 0 10 4.2578125 10 9.84375 0 6.5234375-4.296875 11.40625-10 11.40625zm-.039062-15.234375c-1.914063 0-3.945313 1.015625-3.945313 3.7890625 0 3.125 1.679687 5.4296875 3.945313 5.4296875 2.265624 0 3.945312-2.3046875 3.945312-5.4296875 0-2.9296875-2.03125-3.7890625-3.945312-3.7890625zm-23.085938 11.484375c-6.054688 0-10.625-5.1953125-10.625-12.0703125 0-5.859375 4.648438-10.4296875 10.625-10.4296875s10.625 4.5703125 10.625 10.4296875c0 6.875-4.570312 12.0703125-10.625 12.0703125zm0-16.484375c-2.617188 0-4.609375 1.875-4.609375 4.375 0 3.515625 1.953125 6.09375 4.609375 6.09375s4.609375-2.578125 4.609375-6.09375c0-2.5-1.992187-4.375-4.609375-4.375z" fill="#222d40" fill-rule="evenodd" transform="translate(-182 -68)"/></svg>