<?xml version="1.0" encoding="UTF-8"?>
<svg width="34px" height="21px" viewBox="0 0 34 21" version="1.1" xmlns="http://www.w3.org/2000/svg" xmlns:xlink="http://www.w3.org/1999/xlink">
    <!-- Generator: Sketch 51.2 (57519) - http://www.bohemiancoding.com/sketch -->
    <title>usergroup</title>
    <desc>Created with Sketch.</desc>
    <defs></defs>
    <g id="Page-1" stroke="none" stroke-width="1" fill="none" fill-rule="evenodd">
        <g id="Concept-Two" transform="translate(-703.000000, -4403.000000)" fill="#99FFF6">
            <path d="M705.79834,4421.14746 L705.627441,4423.4375 L703.098145,4423.4375 L703.269043,4420.92529 C703.55957,4417.66113 706.054688,4415.79834 710.12207,4415.79834 C710.566406,4415.79834 710.976562,4415.81543 711.386719,4415.8667 C710.856934,4416.63574 710.498047,4417.50732 710.292969,4418.49854 C710.241699,4418.49854 710.19043,4418.48145 710.12207,4418.48145 C706.191406,4418.48145 705.849609,4420.49805 705.79834,4421.14746 Z M736.730957,4420.9082 L736.918945,4423.4375 L734.372559,4423.4375 L734.20166,4421.13037 C734.150391,4420.49805 733.808594,4418.48145 729.87793,4418.48145 C729.82666,4418.48145 729.775391,4418.49854 729.707031,4418.49854 C729.519043,4417.50732 729.143066,4416.63574 728.630371,4415.8667 C729.023438,4415.81543 729.450684,4415.79834 729.87793,4415.79834 C733.945312,4415.79834 736.44043,4417.66113 736.730957,4420.9082 Z M714.685059,4419.74609 L714.377441,4423.4375 L711.831055,4423.4375 L712.138672,4419.55811 C712.480469,4416.12305 715.334473,4414.15771 720,4414.15771 C724.665527,4414.15771 727.519531,4416.12305 727.861328,4419.54102 L728.168945,4423.4375 L725.622559,4423.4375 L725.314941,4419.729 C725.126953,4417.81494 723.22998,4416.84082 720,4416.84082 C716.77002,4416.84082 714.873047,4417.81494 714.685059,4419.74609 Z M709.609375,4414.6875 C707.114258,4414.6875 705.234375,4412.55127 705.234375,4409.69727 C705.234375,4407.20215 707.080078,4405.39062 709.609375,4405.39062 C712.138672,4405.39062 713.984375,4407.20215 713.984375,4409.69727 C713.984375,4412.55127 712.104492,4414.6875 709.609375,4414.6875 Z M709.609375,4408.02246 C708.771973,4408.02246 707.883301,4408.4668 707.883301,4409.68018 C707.883301,4411.04736 708.618164,4412.05566 709.609375,4412.05566 C710.617676,4412.05566 711.335449,4411.04736 711.335449,4409.68018 C711.335449,4408.4668 710.446777,4408.02246 709.609375,4408.02246 Z M729.84375,4414.6875 C727.348633,4414.6875 725.46875,4412.55127 725.46875,4409.69727 C725.46875,4407.20215 727.314453,4405.39062 729.84375,4405.39062 C732.338867,4405.39062 734.21875,4407.25342 734.21875,4409.69727 C734.21875,4412.55127 732.338867,4414.6875 729.84375,4414.6875 Z M729.82666,4408.02246 C728.989258,4408.02246 728.100586,4408.4668 728.100586,4409.68018 C728.100586,4411.04736 728.835449,4412.05566 729.82666,4412.05566 C730.817871,4412.05566 731.552734,4411.04736 731.552734,4409.68018 C731.552734,4408.39844 730.664062,4408.02246 729.82666,4408.02246 Z M719.726562,4413.04688 C717.077637,4413.04688 715.078125,4410.77393 715.078125,4407.76611 C715.078125,4405.20264 717.111816,4403.20312 719.726562,4403.20312 C722.341309,4403.20312 724.375,4405.20264 724.375,4407.76611 C724.375,4410.77393 722.375488,4413.04688 719.726562,4413.04688 Z M719.726562,4405.83496 C718.581543,4405.83496 717.709961,4406.65527 717.709961,4407.74902 C717.709961,4409.28711 718.564453,4410.41504 719.726562,4410.41504 C720.888672,4410.41504 721.743164,4409.28711 721.743164,4407.74902 C721.743164,4406.65527 720.871582,4405.83496 719.726562,4405.83496 Z" id="usergroup"></path>
        </g>
    </g>
</svg>